<?xml version="1.0" ?><svg id="Layer_1" style="enable-background:new 0 0 256 256;" version="1.1" viewBox="0 0 256 256" xml:space="preserve" xmlns="http://www.w3.org/2000/svg" xmlns:xlink="http://www.w3.org/1999/xlink"><style type="text/css">
	.st0{fill:#D5E2EB;}
	.st1{fill:#00A388;}
	.st2{fill:#00886F;}
	.st3{fill:#8C623B;}
</style><g id="Layer_2"><circle class="st0" cx="128" cy="127.99998" r="120"/></g><g id="Layer_1_1_"><g><g><path class="st1" d="M175.33002,111.72205v92.26001H77.53003c-2.79004,0-4.98004-2.3999-4.73004-5.17993l8.87-98.14014     c0.38-4.15991,3.86005-7.34985,8.04004-7.34985h76.57996c4.17999,0,7.66003,3.18994,8.04004,7.34985L175.33002,111.72205z"/></g><g><g><circle class="st0" cx="106.70968" cy="107.23119" r="6.20968"/></g><g><circle class="st0" cx="149.29033" cy="107.23119" r="6.20968"/></g></g><g><path class="st2" d="M163,197.85437H93c-1.65723,0-3-1.34277-3-3s1.34277-3,3-3h70c1.65723,0,3,1.34277,3,3     S164.65723,197.85437,163,197.85437z"/></g><g><path class="st3" d="M110.70161,90.98297V77.30018c0-9.53802,7.76036-17.29839,17.29839-17.29839     s17.29839,7.76037,17.29839,17.29839v13.68281h7.98387V77.30018c0-13.94059-11.34167-25.28226-25.28226-25.28226     s-25.28226,11.34167-25.28226,25.28226v13.68281h7.98386V90.98297z"/></g><g><path class="st2" d="M178.46997,203.98206h-3.13995v-92.26001l7.87,87.08008     C183.45001,201.58215,181.26001,203.98206,178.46997,203.98206z"/></g><g><path class="st2" d="M77.53003,203.98206h3.13995v-92.26001l-7.87,87.08008     C72.54999,201.58215,74.73999,203.98206,77.53003,203.98206z"/></g></g></g></svg>